{
  "version": "1.1.6",
  "modules": [
    {
      "id": 1,
      "plugin": "Core",
      "version": "1.1.6",
      "model": "AudioInterface",
      "params": [],
      "leftModuleId": 43,
      "data": {
        "audio": {
          "driver": 5,
          "deviceName": "Apple Inc.: MacBook Pro Speakers",
          "offset": 0,
          "maxChannels": 8,
          "sampleRate": 44100,
          "blockSize": 256
        }
      },
      "pos": [
        48,
        0
      ]
    },
    {
      "id": 5,
      "plugin": "Core",
      "version": "1.1.6",
      "model": "MIDIToCVInterface",
      "params": [],
      "rightModuleId": 41,
      "data": {
        "channels": 3,
        "polyMode": 0,
        "clockDivision": 24,
        "lastPitch": 8192,
        "lastMod": 127,
        "midi": {
          "driver": 1,
          "channel": -1
        }
      },
      "pos": [
        2,
        0
      ]
    },
    {
      "id": 7,
      "plugin": "Fundamental",
      "version": "1.4.0",
      "model": "Scope",
      "params": [
        {
          "id": 0,
          "value": 0.0
        },
        {
          "id": 1,
          "value": 0.0
        },
        {
          "id": 2,
          "value": 0.0
        },
        {
          "id": 3,
          "value": 0.0
        },
        {
          "id": 4,
          "value": 14.0
        },
        {
          "id": 5,
          "value": 0.0
        },
        {
          "id": 6,
          "value": 0.0
        },
        {
          "id": 7,
          "value": 0.0
        }
      ],
      "data": {
        "lissajous": 0,
        "external": 0
      },
      "pos": [
        58,
        1
      ]
    },
    {
      "id": 41,
      "plugin": "Fundamental",
      "version": "1.4.0",
      "model": "VCO",
      "params": [
        {
          "id": 0,
          "value": 1.0
        },
        {
          "id": 1,
          "value": 1.0
        },
        {
          "id": 2,
          "value": -12.0003624
        },
        {
          "id": 3,
          "value": 0.0
        },
        {
          "id": 4,
          "value": 0.0
        },
        {
          "id": 5,
          "value": 0.903268576
        },
        {
          "id": 6,
          "value": 0.458999962
        }
      ],
      "leftModuleId": 5,
      "pos": [
        10,
        0
      ]
    },
    {
      "id": 42,
      "plugin": "Fundamental",
      "version": "1.4.0",
      "model": "VCO",
      "params": [
        {
          "id": 0,
          "value": 1.0
        },
        {
          "id": 1,
          "value": 1.0
        },
        {
          "id": 2,
          "value": -12.0003624
        },
        {
          "id": 3,
          "value": -0.1859999
        },
        {
          "id": 4,
          "value": 0.0
        },
        {
          "id": 5,
          "value": 0.466677576
        },
        {
          "id": 6,
          "value": 0.425196856
        }
      ],
      "leftModuleId": 47,
      "rightModuleId": 46,
      "pos": [
        10,
        1
      ]
    },
    {
      "id": 43,
      "plugin": "Fundamental",
      "version": "1.4.0",
      "model": "ADSR",
      "params": [
        {
          "id": 0,
          "value": 0.0
        },
        {
          "id": 1,
          "value": 0.0
        },
        {
          "id": 2,
          "value": 1.0
        },
        {
          "id": 3,
          "value": 0.392161846
        }
      ],
      "leftModuleId": 45,
      "rightModuleId": 1,
      "pos": [
        40,
        0
      ]
    },
    {
      "id": 44,
      "plugin": "Fundamental",
      "version": "1.4.0",
      "model": "VCMixer",
      "params": [
        {
          "id": 0,
          "value": 1.0
        },
        {
          "id": 1,
          "value": 1.0
        },
        {
          "id": 2,
          "value": 0.758169472
        },
        {
          "id": 3,
          "value": 0.838779569
        },
        {
          "id": 4,
          "value": 1.0
        }
      ],
      "leftModuleId": 46,
      "pos": [
        30,
        1
      ]
    },
    {
      "id": 45,
      "plugin": "Fundamental",
      "version": "1.4.0",
      "model": "VCF",
      "params": [
        {
          "id": 0,
          "value": 0.629921257
        },
        {
          "id": 1,
          "value": 0.5
        },
        {
          "id": 2,
          "value": 0.543307066
        },
        {
          "id": 3,
          "value": 0.33799997
        },
        {
          "id": 4,
          "value": 1.0
        }
      ],
      "leftModuleId": 48,
      "rightModuleId": 43,
      "pos": [
        32,
        0
      ]
    },
    {
      "id": 46,
      "plugin": "Fundamental",
      "version": "1.4.0",
      "model": "VCO",
      "params": [
        {
          "id": 0,
          "value": 1.0
        },
        {
          "id": 1,
          "value": 1.0
        },
        {
          "id": 2,
          "value": 0.0
        },
        {
          "id": 3,
          "value": 0.137999907
        },
        {
          "id": 4,
          "value": 0.0
        },
        {
          "id": 5,
          "value": 0.504898071
        },
        {
          "id": 6,
          "value": 0.503937006
        }
      ],
      "leftModuleId": 42,
      "rightModuleId": 44,
      "pos": [
        20,
        1
      ]
    },
    {
      "id": 47,
      "plugin": "AS",
      "version": "1.0.4",
      "model": "TriLFO",
      "params": [
        {
          "id": 0,
          "value": 1.0
        },
        {
          "id": 1,
          "value": 1.0
        },
        {
          "id": 2,
          "value": -2.72799873
        },
        {
          "id": 3,
          "value": 1.0
        },
        {
          "id": 4,
          "value": 1.0
        },
        {
          "id": 5,
          "value": -0.108999819
        },
        {
          "id": 6,
          "value": 1.0
        },
        {
          "id": 7,
          "value": 1.0
        },
        {
          "id": 8,
          "value": -1.75599933
        },
        {
          "id": 9,
          "value": 0.0
        },
        {
          "id": 10,
          "value": 0.0
        },
        {
          "id": 11,
          "value": 0.0
        },
        {
          "id": 12,
          "value": 0.0
        }
      ],
      "rightModuleId": 42,
      "pos": [
        0,
        1
      ]
    },
    {
      "id": 48,
      "plugin": "Core",
      "version": "1.1.6",
      "model": "MIDI-Map",
      "params": [],
      "rightModuleId": 45,
      "data": {
        "maps": [
          {
            "cc": 21,
            "moduleId": 45,
            "paramId": 0
          },
          {
            "cc": 22,
            "moduleId": 45,
            "paramId": 2
          },
          {
            "cc": 23,
            "moduleId": 45,
            "paramId": 4
          },
          {
            "cc": 25,
            "moduleId": 43,
            "paramId": 0
          },
          {
            "cc": 26,
            "moduleId": 43,
            "paramId": 1
          },
          {
            "cc": 27,
            "moduleId": 43,
            "paramId": 2
          },
          {
            "cc": 28,
            "moduleId": 43,
            "paramId": 3
          },
          {
            "cc": -1,
            "moduleId": -1,
            "paramId": 0
          }
        ],
        "midi": {
          "driver": 1,
          "channel": -1
        }
      },
      "pos": [
        22,
        0
      ]
    }
  ],
  "cables": [
    {
      "id": 170,
      "outputModuleId": 5,
      "outputId": 0,
      "inputModuleId": 41,
      "inputId": 0,
      "color": "#0c8e15"
    },
    {
      "id": 171,
      "outputModuleId": 5,
      "outputId": 0,
      "inputModuleId": 42,
      "inputId": 0,
      "color": "#c91847"
    },
    {
      "id": 175,
      "outputModuleId": 43,
      "outputId": 0,
      "inputModuleId": 44,
      "inputId": 6,
      "color": "#0986ad"
    },
    {
      "id": 178,
      "outputModuleId": 5,
      "outputId": 1,
      "inputModuleId": 43,
      "inputId": 4,
      "color": "#c91847"
    },
    {
      "id": 179,
      "outputModuleId": 5,
      "outputId": 6,
      "inputModuleId": 43,
      "inputId": 5,
      "color": "#0986ad"
    },
    {
      "id": 180,
      "outputModuleId": 44,
      "outputId": 0,
      "inputModuleId": 45,
      "inputId": 3,
      "color": "#c9b70e"
    },
    {
      "id": 181,
      "outputModuleId": 45,
      "outputId": 0,
      "inputModuleId": 1,
      "inputId": 0,
      "color": "#0c8e15"
    },
    {
      "id": 183,
      "outputModuleId": 5,
      "outputId": 0,
      "inputModuleId": 46,
      "inputId": 0,
      "color": "#0986ad"
    },
    {
      "id": 185,
      "outputModuleId": 43,
      "outputId": 0,
      "inputModuleId": 44,
      "inputId": 7,
      "color": "#0c8e15"
    },
    {
      "id": 184,
      "outputModuleId": 46,
      "outputId": 3,
      "inputModuleId": 44,
      "inputId": 3,
      "color": "#c9b70e"
    },
    {
      "id": 172,
      "outputModuleId": 42,
      "outputId": 3,
      "inputModuleId": 44,
      "inputId": 1,
      "color": "#c9b70e"
    },
    {
      "id": 173,
      "outputModuleId": 41,
      "outputId": 3,
      "inputModuleId": 44,
      "inputId": 2,
      "color": "#0c8e15"
    },
    {
      "id": 187,
      "outputModuleId": 47,
      "outputId": 0,
      "inputModuleId": 41,
      "inputId": 3,
      "color": "#0986ad"
    },
    {
      "id": 188,
      "outputModuleId": 47,
      "outputId": 4,
      "inputModuleId": 42,
      "inputId": 3,
      "color": "#c9b70e"
    },
    {
      "id": 189,
      "outputModuleId": 47,
      "outputId": 8,
      "inputModuleId": 46,
      "inputId": 3,
      "color": "#0c8e15"
    },
    {
      "id": 190,
      "outputModuleId": 45,
      "outputId": 0,
      "inputModuleId": 1,
      "inputId": 1,
      "color": "#c91847"
    },
    {
      "id": 192,
      "outputModuleId": 45,
      "outputId": 0,
      "inputModuleId": 7,
      "inputId": 1,
      "color": "#c9b70e"
    },
    {
      "id": 193,
      "outputModuleId": 45,
      "outputId": 0,
      "inputModuleId": 7,
      "inputId": 0,
      "color": "#0c8e15"
    },
    {
      "id": 195,
      "outputModuleId": 5,
      "outputId": 2,
      "inputModuleId": 45,
      "inputId": 0,
      "color": "#0986ad"
    },
    {
      "id": 174,
      "outputModuleId": 43,
      "outputId": 0,
      "inputModuleId": 44,
      "inputId": 5,
      "color": "#c91847"
    }
  ]
}